<svg width="533" height="275" viewBox="0 0 533 275" fill="none" xmlns="http://www.w3.org/2000/svg">
<path d="M203.387 53.8281C209.675 53.8281 214.773 48.7301 214.773 42.4414C214.773 36.1527 209.675 31.0547 203.387 31.0547C197.098 31.0547 192 36.1527 192 42.4414C192 48.7301 197.098 53.8281 203.387 53.8281Z" fill="#0572F1"/>
<path d="M329.676 53.8281C335.965 53.8281 341.063 48.7301 341.063 42.4414C341.063 36.1527 335.965 31.0547 329.676 31.0547C323.387 31.0547 318.289 36.1527 318.289 42.4414C318.289 48.7301 323.387 53.8281 329.676 53.8281Z" fill="#8ABDF8"/>
<path d="M203.387 113.866C209.675 113.866 214.773 108.768 214.773 102.479C214.773 96.1907 209.675 91.0927 203.387 91.0927C197.098 91.0927 192 96.1907 192 102.479C192 108.768 197.098 113.866 203.387 113.866Z" fill="#8ABDF8"/>
<path d="M329.676 113.866C335.965 113.866 341.063 108.768 341.063 102.479C341.063 96.1907 335.965 91.0927 329.676 91.0927C323.387 91.0927 318.289 96.1907 318.289 102.479C318.289 108.768 323.387 113.866 329.676 113.866Z" fill="#0572F1"/>
<path d="M265.496 22.7734C271.785 22.7734 276.883 17.6754 276.883 11.3867C276.883 5.09801 271.785 0 265.496 0C259.207 0 254.109 5.09801 254.109 11.3867C254.109 17.6754 259.207 22.7734 265.496 22.7734Z" fill="#8ABDF8"/>
<path d="M265.496 146.992C271.785 146.992 276.883 141.894 276.883 135.605C276.883 129.316 271.785 124.218 265.496 124.218C259.207 124.218 254.109 129.316 254.109 135.605C254.109 141.894 259.207 146.992 265.496 146.992Z" fill="#8ABDF8"/>
<path d="M254.109 58.8797C253.468 60.9086 252.971 63.0203 252.619 65.1734C252.453 64.7594 252.246 64.3453 252.039 63.952C248.954 57.948 242.702 53.8281 235.477 53.8281H234.441C228.168 53.8281 223.055 48.7145 223.055 42.4414C223.055 36.1684 228.168 31.0547 234.441 31.0547H235.477C241.377 31.0547 246.967 32.2969 252.039 34.5121C252.743 34.8227 253.426 35.1332 254.109 35.4852C254.813 35.8371 255.496 36.2098 256.18 36.6238C258.871 38.1559 261.376 40.0191 263.654 42.1309C260.61 45.5055 258.084 49.3563 256.18 53.5176C255.372 55.2566 254.689 57.0371 254.109 58.8797Z" fill="#0572F1"/>
<path d="M310.008 102.479C310.008 108.752 304.915 113.866 298.621 113.866H295.516C291.189 113.866 287.027 113.203 283.094 111.961C282.411 111.754 281.707 111.506 281.023 111.257C280.32 110.988 279.636 110.719 278.953 110.409C275.579 108.939 272.452 107.034 269.637 104.757C273.487 100.926 276.655 96.4132 278.953 91.403C279.761 89.664 280.444 87.8835 281.023 86.0409C281.168 85.5855 281.313 85.1093 281.438 84.6331C281.955 85.2335 282.514 85.8132 283.094 86.3308C286.406 89.2913 290.754 91.0925 295.516 91.0925H298.621C304.915 91.0925 310.008 96.2062 310.008 102.479Z" fill="#0572F1"/>
<path d="M310.008 42.4414C310.008 48.7145 304.915 53.8281 298.621 53.8281H297.586C291.727 53.8281 286.51 56.5402 283.094 60.7844C282.286 61.7574 281.603 62.834 281.023 63.952C280.816 64.3453 280.609 64.7594 280.444 65.1734C279.491 67.4094 278.953 69.873 278.953 72.4609C278.953 74.9039 278.746 77.3055 278.311 79.6242C276.821 88.3195 272.577 96.0832 266.531 102.004C266.034 102.501 265.517 102.977 264.999 103.433C264.482 103.909 263.964 104.344 263.426 104.758C261.19 106.559 258.768 108.132 256.18 109.437C255.496 109.789 254.813 110.099 254.109 110.41C253.426 110.72 252.743 110.989 252.039 111.259C247.526 112.936 242.64 113.867 237.547 113.867H234.441C228.168 113.867 223.055 108.754 223.055 102.48C223.055 96.2074 228.168 91.0938 234.441 91.0938H237.547C243.178 91.0938 248.23 88.5887 251.625 84.6344C251.77 84.4688 251.915 84.3031 252.039 84.1375C252.474 83.6199 252.867 83.0816 253.219 82.5019C253.55 82.0051 253.84 81.4875 254.109 80.9699C254.337 80.5352 254.565 80.0797 254.751 79.6242C255.662 77.409 256.18 74.9867 256.18 72.4609C256.18 61.9645 260.093 52.3996 266.531 45.0914C266.987 44.5738 267.463 44.0563 267.96 43.5594C268.436 43.0832 268.912 42.607 269.409 42.1309C272.245 39.4809 275.454 37.2449 278.953 35.4852C279.636 35.1332 280.32 34.8227 281.023 34.5121C281.707 34.2016 282.39 33.9324 283.094 33.6633C287.607 31.9863 292.493 31.0547 297.586 31.0547H298.621C304.915 31.0547 310.008 36.1684 310.008 42.4414Z" fill="#8ABDF8"/>
<path d="M25.7824 252.47C21.7471 252.47 18.1077 251.767 14.8642 250.363C11.6461 248.958 8.99 246.953 6.89574 244.348C4.82702 241.717 3.51172 238.602 2.94984 235L12.5273 233.545C13.3445 236.814 15.0174 239.342 17.5458 241.13C20.0998 242.918 23.0369 243.812 26.3571 243.812C28.3236 243.812 30.1752 243.505 31.912 242.892C33.6487 242.279 35.0533 241.385 36.126 240.211C37.2242 239.036 37.7733 237.593 37.7733 235.882C37.7733 235.115 37.6456 234.413 37.3902 233.774C37.1348 233.11 36.7517 232.523 36.2409 232.012C35.7557 231.501 35.1172 231.042 34.3255 230.633C33.5593 230.199 32.6654 229.829 31.6438 229.522L17.3926 225.308C16.1667 224.95 14.8386 224.478 13.4084 223.891C12.0037 223.278 10.6629 222.448 9.38587 221.4C8.13442 220.328 7.10006 218.974 6.28279 217.34C5.49105 215.68 5.09519 213.636 5.09519 211.21C5.09519 207.66 5.98908 204.685 7.77686 202.284C9.59019 199.858 12.0165 198.044 15.0557 196.844C18.1205 195.644 21.5173 195.056 25.2461 195.082C29.026 195.107 32.3972 195.759 35.3598 197.036C38.3224 198.287 40.7998 200.113 42.7919 202.514C44.784 204.915 46.1887 207.813 47.006 211.21L37.0838 212.934C36.6751 210.993 35.8834 209.346 34.7086 207.992C33.5593 206.613 32.1418 205.566 30.4562 204.851C28.7961 204.136 27.0211 203.752 25.1311 203.701C23.2923 203.676 21.5811 203.957 19.9976 204.544C18.4397 205.106 17.1755 205.923 16.205 206.996C15.26 208.069 14.7875 209.32 14.7875 210.75C14.7875 212.104 15.1962 213.215 16.0134 214.083C16.8307 214.926 17.8395 215.603 19.0399 216.114C20.2658 216.599 21.5045 217.008 22.7559 217.34L32.6398 220.098C33.9934 220.455 35.5131 220.941 37.1987 221.554C38.8843 222.167 40.5061 223.022 42.064 224.12C43.6219 225.219 44.8989 226.662 45.895 228.449C46.9166 230.237 47.4274 232.51 47.4274 235.269C47.4274 238.129 46.8272 240.645 45.6268 242.816C44.452 244.961 42.8557 246.749 40.8381 248.179C38.8205 249.609 36.5091 250.682 33.9041 251.397C31.3245 252.112 28.6173 252.47 25.7824 252.47ZM73.6868 252.47C69.4217 252.47 65.7823 251.525 62.7686 249.635C59.7549 247.719 57.4435 245.114 55.8345 241.82C54.2511 238.525 53.4466 234.796 53.421 230.633C53.4466 226.393 54.2766 222.639 55.9112 219.37C57.5712 216.075 59.9209 213.496 62.9601 211.631C65.9994 209.742 69.6133 208.797 73.8018 208.797C78.5011 208.797 82.4725 209.984 85.7161 212.359C88.9852 214.709 91.1177 217.927 92.1138 222.013L82.9195 224.504C82.2044 222.282 81.0168 220.558 79.3567 219.332C77.6966 218.08 75.8066 217.455 73.6868 217.455C71.2861 217.455 69.3068 218.029 67.7488 219.179C66.1909 220.302 65.0416 221.86 64.301 223.852C63.5603 225.844 63.19 228.105 63.19 230.633C63.19 234.566 64.0711 237.746 65.8334 240.172C67.5956 242.598 70.2134 243.812 73.6868 243.812C76.1387 243.812 78.0669 243.25 79.4716 242.126C80.9018 241.002 81.9745 239.38 82.6896 237.261L92.1138 239.368C90.8368 243.582 88.6021 246.825 85.4096 249.098C82.2171 251.346 78.3095 252.47 73.6868 252.47ZM110.687 252.47C107.699 252.47 105.17 251.908 103.101 250.784C101.033 249.635 99.4621 248.115 98.3894 246.225C97.3423 244.335 96.8187 242.254 96.8187 239.981C96.8187 237.989 97.1507 236.201 97.8147 234.617C98.4788 233.008 99.5004 231.629 100.88 230.48C102.259 229.305 104.046 228.347 106.243 227.607C107.903 227.07 109.844 226.585 112.066 226.151C114.313 225.717 116.74 225.321 119.345 224.963C121.975 224.58 124.721 224.172 127.581 223.737L124.287 225.615C124.312 222.754 123.674 220.647 122.371 219.293C121.069 217.94 118.872 217.263 115.782 217.263C113.918 217.263 112.117 217.697 110.38 218.566C108.644 219.434 107.43 220.928 106.741 223.048L98.3128 220.404C99.3344 216.905 101.275 214.096 104.136 211.976C107.022 209.856 110.904 208.797 115.782 208.797C119.46 208.797 122.69 209.397 125.474 210.597C128.284 211.798 130.365 213.764 131.719 216.497C132.459 217.953 132.906 219.447 133.06 220.979C133.213 222.486 133.289 224.133 133.289 225.921V251.32H125.206V242.356L126.547 243.812C124.683 246.8 122.499 248.996 119.996 250.401C117.519 251.78 114.416 252.47 110.687 252.47ZM112.526 245.114C114.62 245.114 116.408 244.744 117.889 244.003C119.37 243.263 120.545 242.356 121.414 241.283C122.307 240.211 122.908 239.202 123.214 238.257C123.699 237.082 123.967 235.741 124.019 234.234C124.095 232.702 124.133 231.463 124.133 230.518L126.968 231.361C124.185 231.795 121.797 232.178 119.804 232.51C117.812 232.842 116.101 233.162 114.671 233.468C113.241 233.749 111.977 234.068 110.878 234.426C109.806 234.809 108.899 235.256 108.158 235.767C107.418 236.277 106.843 236.865 106.434 237.529C106.051 238.193 105.86 238.972 105.86 239.866C105.86 240.887 106.115 241.794 106.626 242.586C107.137 243.352 107.877 243.965 108.848 244.425C109.844 244.884 111.07 245.114 112.526 245.114ZM143.263 251.32V209.946H151.423V220.021L150.427 218.719C150.938 217.34 151.615 216.088 152.457 214.964C153.326 213.815 154.36 212.87 155.561 212.13C156.582 211.44 157.706 210.904 158.932 210.521C160.183 210.112 161.46 209.869 162.763 209.793C164.065 209.69 165.33 209.742 166.555 209.946V218.566C165.33 218.208 163.912 218.093 162.303 218.221C160.72 218.348 159.289 218.795 158.012 219.562C156.735 220.251 155.688 221.132 154.871 222.205C154.079 223.278 153.492 224.504 153.109 225.883C152.726 227.236 152.534 228.705 152.534 230.288V251.32H143.263ZM177.467 251.32V209.295C177.467 208.247 177.505 207.098 177.582 205.847C177.659 204.57 177.876 203.306 178.233 202.054C178.591 200.803 179.242 199.666 180.187 198.645C181.362 197.342 182.626 196.448 183.98 195.963C185.359 195.452 186.713 195.171 188.041 195.12C189.369 195.043 190.531 195.005 191.527 195.005H196.699V202.514H191.91C190.148 202.514 188.832 202.961 187.964 203.855C187.121 204.723 186.7 205.872 186.7 207.303V251.32H177.467ZM170.801 217.186V209.946H196.699V217.186H170.801ZM240.918 252.47C237.342 252.47 233.983 251.844 230.842 250.592C227.726 249.315 224.981 247.451 222.605 244.999C220.256 242.547 218.417 239.546 217.089 235.996C215.761 232.421 215.097 228.335 215.097 223.737C215.097 217.71 216.221 212.564 218.468 208.299C220.716 204.008 223.793 200.726 227.701 198.453C231.608 196.154 236.014 195.005 240.918 195.005C247.711 195.005 253.087 196.589 257.046 199.755C261.03 202.897 263.725 207.315 265.129 213.011L255.705 214.505C254.658 211.236 252.947 208.631 250.572 206.69C248.196 204.723 245.17 203.74 241.492 203.74C237.789 203.689 234.711 204.493 232.26 206.153C229.808 207.813 227.956 210.15 226.705 213.164C225.479 216.178 224.866 219.702 224.866 223.737C224.866 227.773 225.479 231.284 226.705 234.273C227.931 237.235 229.769 239.546 232.221 241.207C234.699 242.867 237.789 243.722 241.492 243.773C244.276 243.799 246.715 243.301 248.809 242.279C250.904 241.232 252.615 239.661 253.943 237.567C255.271 235.447 256.165 232.804 256.624 229.637H246.894V222.397H266.432C266.483 222.805 266.521 223.405 266.547 224.197C266.572 224.989 266.585 225.461 266.585 225.615C266.585 230.825 265.551 235.46 263.482 239.521C261.439 243.556 258.502 246.723 254.671 249.022C250.84 251.32 246.255 252.47 240.918 252.47ZM285.849 252.47C282.861 252.47 280.332 251.908 278.263 250.784C276.195 249.635 274.624 248.115 273.551 246.225C272.504 244.335 271.981 242.254 271.981 239.981C271.981 237.989 272.313 236.201 272.977 234.617C273.641 233.008 274.662 231.629 276.041 230.48C277.421 229.305 279.208 228.347 281.405 227.607C283.065 227.07 285.006 226.585 287.228 226.151C289.475 225.717 291.902 225.321 294.507 224.963C297.137 224.58 299.883 224.172 302.743 223.737L299.449 225.615C299.474 222.754 298.836 220.647 297.533 219.293C296.231 217.94 294.034 217.263 290.944 217.263C289.08 217.263 287.279 217.697 285.542 218.566C283.806 219.434 282.592 220.928 281.903 223.048L273.475 220.404C274.496 216.905 276.437 214.096 279.298 211.976C282.184 209.856 286.066 208.797 290.944 208.797C294.622 208.797 297.852 209.397 300.636 210.597C303.446 211.798 305.527 213.764 306.881 216.497C307.621 217.953 308.068 219.447 308.222 220.979C308.375 222.486 308.451 224.133 308.451 225.921V251.32H300.368V242.356L301.709 243.812C299.845 246.8 297.661 248.996 295.158 250.401C292.681 251.78 289.578 252.47 285.849 252.47ZM287.688 245.114C289.782 245.114 291.57 244.744 293.051 244.003C294.532 243.263 295.707 242.356 296.575 241.283C297.469 240.211 298.07 239.202 298.376 238.257C298.861 237.082 299.129 235.741 299.181 234.234C299.257 232.702 299.295 231.463 299.295 230.518L302.13 231.361C299.347 231.795 296.959 232.178 294.966 232.51C292.974 232.842 291.263 233.162 289.833 233.468C288.403 233.749 287.139 234.068 286.04 234.426C284.968 234.809 284.061 235.256 283.32 235.767C282.58 236.277 282.005 236.865 281.596 237.529C281.213 238.193 281.022 238.972 281.022 239.866C281.022 240.887 281.277 241.794 281.788 242.586C282.299 243.352 283.039 243.965 284.01 244.425C285.006 244.884 286.232 245.114 287.688 245.114ZM342.675 251.32C339.942 251.831 337.261 252.048 334.63 251.972C332.025 251.92 329.688 251.448 327.619 250.554C325.551 249.635 323.98 248.192 322.907 246.225C321.962 244.437 321.464 242.611 321.413 240.747C321.362 238.882 321.337 236.775 321.337 234.426V198.453H330.531V233.889C330.531 235.549 330.544 237.005 330.569 238.257C330.62 239.508 330.889 240.53 331.374 241.321C332.293 242.854 333.762 243.709 335.779 243.888C337.797 244.067 340.096 243.965 342.675 243.582V251.32ZM313.828 217.186V209.946H342.675V217.186H313.828ZM368.287 252.47C364.098 252.47 360.421 251.563 357.254 249.75C354.087 247.936 351.61 245.421 349.822 242.203C348.059 238.985 347.178 235.281 347.178 231.093C347.178 226.572 348.047 222.652 349.783 219.332C351.52 215.986 353.934 213.394 357.024 211.555C360.114 209.716 363.69 208.797 367.751 208.797C372.041 208.797 375.681 209.805 378.669 211.823C381.683 213.815 383.917 216.637 385.373 220.289C386.829 223.942 387.378 228.245 387.02 233.2H377.864V229.829C377.839 225.334 377.047 222.052 375.489 219.983C373.931 217.914 371.479 216.88 368.134 216.88C364.354 216.88 361.544 218.055 359.706 220.404C357.867 222.729 356.947 226.138 356.947 230.633C356.947 234.822 357.867 238.065 359.706 240.364C361.544 242.662 364.226 243.812 367.751 243.812C370.024 243.812 371.977 243.314 373.612 242.318C375.272 241.296 376.549 239.827 377.443 237.912L386.561 240.67C384.977 244.399 382.525 247.298 379.205 249.367C375.911 251.435 372.271 252.47 368.287 252.47ZM354.036 233.2V226.227H382.5V233.2H354.036ZM402.883 251.32L390.241 209.869L399.282 209.946L407.365 236.494L415.564 209.946H423.34L431.5 236.494L439.622 209.946H448.663L436.021 251.32H428.819L419.433 222.856L410.085 251.32H402.883ZM464.827 252.47C461.839 252.47 459.31 251.908 457.241 250.784C455.173 249.635 453.602 248.115 452.529 246.225C451.482 244.335 450.959 242.254 450.959 239.981C450.959 237.989 451.291 236.201 451.955 234.617C452.619 233.008 453.64 231.629 455.019 230.48C456.399 229.305 458.186 228.347 460.383 227.607C462.043 227.07 463.984 226.585 466.206 226.151C468.453 225.717 470.88 225.321 473.485 224.963C476.115 224.58 478.861 224.172 481.721 223.737L478.427 225.615C478.452 222.754 477.814 220.647 476.511 219.293C475.209 217.94 473.012 217.263 469.922 217.263C468.058 217.263 466.257 217.697 464.52 218.566C462.784 219.434 461.57 220.928 460.881 223.048L452.453 220.404C453.474 216.905 455.415 214.096 458.276 211.976C461.162 209.856 465.044 208.797 469.922 208.797C473.6 208.797 476.83 209.397 479.614 210.597C482.424 211.798 484.505 213.764 485.859 216.497C486.599 217.953 487.046 219.447 487.2 220.979C487.353 222.486 487.429 224.133 487.429 225.921V251.32H479.346V242.356L480.687 243.812C478.823 246.8 476.639 248.996 474.136 250.401C471.659 251.78 468.556 252.47 464.827 252.47ZM466.666 245.114C468.76 245.114 470.548 244.744 472.029 244.003C473.51 243.263 474.685 242.356 475.553 241.283C476.447 240.211 477.048 239.202 477.354 238.257C477.839 237.082 478.107 235.741 478.158 234.234C478.235 232.702 478.273 231.463 478.273 230.518L481.108 231.361C478.325 231.795 475.937 232.178 473.944 232.51C471.952 232.842 470.241 233.162 468.811 233.468C467.381 233.749 466.116 234.068 465.018 234.426C463.946 234.809 463.039 235.256 462.298 235.767C461.558 236.277 460.983 236.865 460.574 237.529C460.191 238.193 460 238.972 460 239.866C460 240.887 460.255 241.794 460.766 242.586C461.277 243.352 462.017 243.965 462.988 244.425C463.984 244.884 465.21 245.114 466.666 245.114ZM500.524 269.709L508.492 247.834L508.645 254.27L490.601 209.946H500.217L513.013 242.739H510.561L523.011 209.946H532.244L509.182 269.709H500.524Z" fill="black"/>
</svg>
